# xmcd
#
# Track frame offsets:
#	150
#	16681
#	31415
#	47798
#	61093
#	76098
#	94382
#	111007
#	126370
#	143360
#	160188
#	176736
#	192035
#	207687
#	222295
#	239052
#	255145
#	271043
#	286902
#	303672
#	318909
#
# Disc length: 4391 seconds
#
# Revision: 1
# Processed by: cddbd v1.5.1PL0 Copyright (c) Steve Scherf et al.
# Submitted via: audiograbber 1.83.01
#
DISCID=20112515
DTITLE=Chrystian e Ralf  - Dose Dupla 4
DYEAR=1900
DGENRE=
TTITLE0=Só mais um caso de amor
TTITLE1=O show vai começar
TTITLE2=Minha história com você
TTITLE3=Já passou
TTITLE4=Poeira no vento
TTITLE5=Distância
TTITLE6=Estação paraiso
TTITLE7=Amor demais
TTITLE8=Camas separadas
TTITLE9=Louco por ela
TTITLE10=Minha vida sem ela
TTITLE11=Lock, stock and teardrops
TTITLE12=Cheiro de shampoo
TTITLE13=Vazio da solidão
TTITLE14=Não tire o nosso nenem
TTITLE15=Últimas fronteiras
TTITLE16=Loucura demais
TTITLE17=É desse jeito que a gente se ama
TTITLE18=Menina
TTITLE19=Se ligue em mim
TTITLE20=Ladrão de mulher
EXTD=
EXTT0=
EXTT1=
EXTT2=
EXTT3=
EXTT4=
EXTT5=
EXTT6=
EXTT7=
EXTT8=
EXTT9=
EXTT10=
EXTT11=
EXTT12=
EXTT13=
EXTT14=
EXTT15=
EXTT16=
EXTT17=
EXTT18=
EXTT19=
EXTT20=
PLAYORDER=
